<svg width="1410" height="602" viewBox="0 0 1410 602" fill="none" xmlns="http://www.w3.org/2000/svg">
<path d="M5.00279 547.52C5.009 570.516 5.01614 597 50.2451 597C95.4874 597 1333.13 596.002 1367.31 596.002C1401.49 596.002 1405 582.002 1405 542V188.5C1405 162.002 1390.44 150.502 1381.89 148C1373.34 145.498 494.135 148.998 486.595 148C479.054 147.002 463.974 123.502 463.974 123.502C463.974 123.502 422.727 44 414.697 28.5C406.667 13 399.126 5.00195 391.586 5.00001C384.046 4.99806 67.3496 5.50001 44.2257 5.50001C21.1019 5.50001 5.00292 18 5.00279 51C5.00265 84 4.99658 524.5 5.00279 547.5L5.00279 547.52Z" stroke="black" stroke-width="9"/>
</svg>
