<?xml version="1.0" encoding="utf-8"?>
<!-- Generator: Adobe Illustrator 26.0.0, SVG Export Plug-In . SVG Version: 6.00 Build 0)  -->
<svg version="1.1" id="Layer_1" xmlns="http://www.w3.org/2000/svg" xmlns:xlink="http://www.w3.org/1999/xlink" x="0px" y="0px"
	 viewBox="0 0 500 500" style="enable-background:new 0 0 500 500;" xml:space="preserve">
<style type="text/css">
	.st0{fill:none;stroke:#0061b0;stroke-width:1;stroke-miterlimit:10;}
</style>
<g>
	<path class="st0" d="M0,443.8L196.1,258c8.6-8.2,9-21.8,0.8-30.5l-89.2-94.1h34.4l72.9,76.9c17.7,18.6,16.9,48.2-1.8,65.8
		L141.7,344"/>
	<path class="st0" d="M177.3,133.4l56.3,59.4c9.1,9.6,21.5,14.5,33.8,14.5c11.5,0,23-4.2,32-12.7l64.6-61.2h-36.3l-45.4,43
		c-4.2,4-9.6,6-15.4,5.9c-5.8-0.2-11.1-2.5-15.1-6.7L141,58.8"/>
	<path class="st0" d="M500,49L320.6,217.1c-9,8.6-14.2,20.1-14.5,32.5c-0.3,12.4,4.2,24.2,12.7,33.3l57.9,61.1h34.4L337,265.7
		c-8.2-8.6-7.8-22.3,0.8-30.5l107.4-101.8"/>
	<path class="st0" d="M443.1,451L300.3,300.4c-17.7-18.6-47.2-19.4-65.8-1.8L186.6,344h36.3l28.8-27.3c4.2-4,9.7-6,15.4-5.9
		c5.8,0.2,11.1,2.5,15.1,6.7l25.1,26.4"/>
</g>
</svg>
